# xmcd
#
# Track frame offsets:
#	182
#	18660
#	40940
#	63922
#	84032
#	107577
#	131365
#	150847
#	174175
#	195032
#	214277
#
# Disc length: 3173 seconds
#
# Revision: 2
# Processed by: cddbd v1.5.2PL0 Copyright (c) Steve Scherf et al.
# Submitted via: audiograbber 1.83.01
#
DISCID=760c630b
DTITLE=F.S. Effect - So Deep It's Bottomless
DYEAR=1991
DGENRE=Hip-Hop
TTITLE0=Your Luvin'
TTITLE1=Back In The Dayz
TTITLE2=I Wanna B Ure Lover
TTITLE3=I'm The Man
TTITLE4=Think Big
TTITLE5=Mentally Stable
TTITLE6=Get It Together (Black Is A Force)
TTITLE7=Don't Play Me
TTITLE8=Keep On Talkin'
TTITLE9=Do It Right
TTITLE10=I Wanna B Ure Lover (Rich Love's Jazz Mix)
EXTD=www.RapMusicGuide.com
EXTT0=
EXTT1=
EXTT2=
EXTT3=
EXTT4=
EXTT5=
EXTT6=
EXTT7=
EXTT8=
EXTT9=
EXTT10=
PLAYORDER=
